<?xml version="1.0" standalone="no"?>
<!DOCTYPE svg PUBLIC "-//W3C//DTD SVG 20010904//EN"
 "http://www.w3.org/TR/2001/REC-SVG-20010904/DTD/svg10.dtd">
<svg version="1.0" xmlns="http://www.w3.org/2000/svg"
 width="539.000000pt" height="349.000000pt" viewBox="0 0 539.000000 349.000000"
 preserveAspectRatio="xMidYMid meet">

<g transform="translate(0.000000,349.000000) scale(0.100000,-0.100000)"
fill="#000000" stroke="none">
<path d="M3410 2530 c-63 -16 -125 -34 -137 -39 -23 -11 -31 -35 -14 -46 8 -4
329 62 339 71 2 1 -1 12 -8 23 -14 28 -38 26 -180 -9z"/>
<path d="M1740 2440 c-11 -11 -20 -27 -20 -35 0 -22 45 -65 68 -65 50 0 83 67
52 105 -18 22 -76 19 -100 -5z"/>
<path d="M3495 2383 c-45 -10 -45 -10 -25 -58 27 -63 25 -67 -7 -17 -32 49
-46 55 -31 12 20 -58 -41 -106 -104 -82 -36 13 -35 6 4 -35 18 -18 27 -33 21
-33 -10 0 40 -115 54 -123 8 -4 118 20 277 61 39 10 71 23 73 28 3 9 -10 14
-133 50 l-61 18 23 33 c12 18 32 41 44 51 22 18 21 18 -17 14 -34 -3 -42 0
-57 22 -9 15 -15 34 -14 43 3 18 -14 24 -47 16z m7 -175 c-7 -7 -12 -8 -12 -2
0 14 12 26 19 19 2 -3 -1 -11 -7 -17z"/>
<path d="M1490 2339 c-47 -16 -92 -32 -100 -36 -8 -3 -18 -5 -22 -5 -12 3 -21
-44 -13 -67 3 -12 12 -27 18 -33 12 -13 33 -76 44 -131 8 -39 23 -42 93 -19
l60 21 17 -30 c21 -35 105 -79 147 -78 26 1 24 3 -14 11 -25 5 -51 15 -58 23
-11 10 -9 14 14 19 45 12 84 45 84 72 0 33 -67 164 -97 190 -13 11 -31 36 -41
55 -9 18 -24 35 -32 36 -8 1 -53 -11 -100 -28z m80 -36 c0 -7 -11 -15 -25 -19
-14 -3 -25 -8 -25 -10 0 -3 14 -31 30 -64 17 -33 30 -62 30 -64 0 -3 -9 -10
-20 -16 -19 -10 -23 -5 -52 57 -39 84 -33 78 -62 65 -19 -8 -27 -8 -36 3 -22
26 -3 42 72 62 73 20 87 18 88 -14z"/>
<path d="M3314 2335 c-9 -24 23 -65 51 -65 32 0 36 9 20 48 -11 24 -20 32 -40
32 -14 0 -28 -7 -31 -15z"/>
<path d="M1838 2328 c-16 -5 -28 -14 -28 -19 0 -5 18 -49 40 -98 22 -49 40
-98 40 -110 0 -27 20 -27 54 0 49 39 50 61 9 155 -41 91 -50 96 -115 72z"/>
<path d="M4265 2118 c-3 -7 -11 -33 -20 -58 l-15 -45 35 40 c27 32 37 37 47
27 17 -17 -82 -118 -107 -108 -17 6 -17 16 0 61 7 16 3 15 -22 -7 -16 -16 -37
-28 -46 -28 -10 0 -17 -8 -17 -20 0 -17 -3 -18 -26 -9 -47 17 -36 3 16 -21 28
-13 50 -27 50 -31 0 -5 -11 -28 -25 -53 -28 -51 -29 -49 60 -88 33 -15 100
-45 150 -68 l89 -41 18 23 c32 42 103 191 93 195 -67 25 -139 60 -142 68 -1 6
8 23 20 39 l24 29 66 -34 c37 -18 67 -37 67 -42 0 -4 5 -5 10 -2 25 16 3 35
-76 65 -47 19 -100 47 -117 63 -51 48 -122 72 -132 45z"/>
<path d="M4180 2100 c-17 -32 -6 -46 13 -17 9 15 13 28 7 32 -5 3 -14 -4 -20
-15z"/>
<path d="M2832 1953 c-32 -49 -69 -107 -82 -131 -29 -51 -22 -51 -211 14 -69
24 -131 44 -137 44 -16 0 -33 -99 -26 -149 10 -68 41 -147 93 -233 54 -91 56
-91 202 -54 128 32 208 66 284 120 60 44 67 53 130 177 37 72 65 132 63 134
-2 1 -25 14 -53 28 -51 25 -79 49 -127 105 -46 55 -68 46 -136 -55z"/>
<path d="M1175 1924 c-11 -1 -87 -8 -170 -14 -183 -14 -191 -16 -199 -37 -11
-28 14 -39 121 -57 84 -13 120 -14 210 -5 116 11 133 20 133 69 0 45 -22 55
-95 44z"/>
<path d="M1230 1747 c0 -9 -4 -17 -10 -17 -5 0 -7 -7 -4 -15 11 -27 -16 -47
-50 -39 -44 10 -226 11 -226 1 0 -5 -4 -5 -10 -2 -11 7 -25 -39 -17 -58 4 -12
-8 -17 -53 -20 -8 0 -38 2 -67 6 l-52 8 -14 -48 c-17 -58 -13 -70 21 -77 323
-59 395 -69 410 -60 22 14 97 313 82 328 -7 7 -10 5 -10 -7z"/>
<path d="M1186 1714 c-8 -20 0 -32 14 -18 5 5 5 15 1 22 -6 11 -10 10 -15 -4z"/>
<path d="M1822 1452 c-46 -24 -102 -81 -102 -103 0 -11 -4 -19 -8 -19 -18 0
-94 -74 -111 -109 -20 -40 -34 -121 -23 -137 4 -7 64 27 157 88 83 55 161 104
174 109 13 5 50 26 82 46 l58 35 -14 29 c-21 39 -92 79 -141 79 -22 0 -54 -8
-72 -18z"/>
<path d="M3413 1393 c-15 -5 -17 -23 -4 -23 5 0 11 7 15 15 3 8 4 15 3 14 -1
0 -8 -3 -14 -6z"/>
<path d="M3340 1365 c0 -18 19 -40 26 -32 4 4 0 15 -9 24 -9 10 -17 13 -17 8z"/>
<path d="M3446 1351 c-16 -18 -16 -21 5 -65 13 -25 21 -48 18 -50 -14 -14 -47
9 -59 42 l-13 36 -19 -27 c-11 -15 -28 -27 -39 -27 -17 0 -18 -3 -7 -22 7 -13
18 -26 23 -30 17 -13 -27 -9 -79 7 -27 8 -51 13 -54 10 -6 -6 62 -35 82 -35
24 0 26 -12 14 -89 -9 -59 -8 -75 3 -86 8 -7 59 -25 114 -40 55 -15 151 -42
212 -61 62 -18 119 -31 128 -28 15 6 23 38 27 113 3 43 2 44 -37 56 -35 11
-37 13 -12 14 26 1 32 9 28 40 -2 7 2 10 8 7 9 -6 37 31 29 39 -2 3 -53 20
-113 39 l-110 34 3 43 c2 24 6 52 8 61 4 13 -3 21 -21 28 -34 13 -32 13 -38
-11 l-6 -21 -27 21 c-33 26 -46 26 -68 2z m324 -261 c0 -5 -5 -10 -11 -10 -5
0 -7 5 -4 10 3 6 8 10 11 10 2 0 4 -4 4 -10z"/>
<path d="M2150 1250 c0 -60 -19 -107 -56 -139 -39 -35 -36 -41 6 -11 51 36 85
132 60 170 -7 11 -10 6 -10 -20z"/>
<path d="M4293 1203 c9 -9 19 -14 23 -11 10 10 -6 28 -24 28 -15 0 -15 -1 1
-17z"/>
<path d="M4368 1193 c-3 -13 -18 -27 -32 -33 -24 -9 -25 -12 -14 -30 11 -17
10 -22 -1 -29 -22 -14 -35 -4 -55 45 -10 25 -20 43 -23 41 -2 -3 6 -27 19 -53
26 -54 55 -65 74 -27 6 13 19 32 28 42 10 11 16 30 14 43 l-3 23 -7 -22z"/>
<path d="M4515 1174 c-44 -7 -82 -13 -84 -13 -3 -1 -1 -5 5 -11 6 -6 22 -6 44
0 19 6 49 10 67 10 37 0 63 9 63 21 0 5 -3 8 -7 8 -5 -1 -44 -8 -88 -15z"/>
<path d="M1928 1053 c7 -3 16 -2 19 1 4 3 -2 6 -13 5 -11 0 -14 -3 -6 -6z"/>
<path d="M4372 1045 c-40 -7 -80 -16 -88 -19 -9 -3 -24 -1 -35 4 -37 20 -19 3
39 -37 64 -44 105 -63 130 -62 9 0 -2 8 -25 17 -56 23 -61 30 -27 37 48 10
114 46 114 61 0 17 -11 16 -108 -1z"/>
<path d="M1878 1043 c7 -3 16 -2 19 1 4 3 -2 6 -13 5 -11 0 -14 -3 -6 -6z"/>
</g>
</svg>
