<?xml version="1.0" encoding="UTF-8"?>
<!DOCTYPE svg PUBLIC "-//W3C//DTD SVG 1.1//EN" "http://www.w3.org/Graphics/SVG/1.1/DTD/svg11.dtd">
<!-- Creator: CorelDRAW 2021 (64-Bit) -->
<svg xmlns="http://www.w3.org/2000/svg" xml:space="preserve" width="135.467mm" height="135.467mm" version="1.1" style="shape-rendering:geometricPrecision; text-rendering:geometricPrecision; image-rendering:optimizeQuality; fill-rule:evenodd; clip-rule:evenodd"
viewBox="0 0 135.4666 135.4666"
 xmlns:xlink="http://www.w3.org/1999/xlink"
 xmlns:xodm="http://www.corel.com/coreldraw/odm/2003">
 <defs>
  <style type="text/css">
   <![CDATA[
    .str0 {stroke:#2F04D9;stroke-width:0.0762;stroke-miterlimit:22.9256}
    .fil0 {fill:#2F04D9;fill-rule:nonzero}
   ]]>
  </style>
 </defs>
 <g id="Capa_x0020_1">
  <metadata id="CorelCorpID_0Corel-Layer"/>
 </g>
 <g id="Capa_x0020_1_0">
  <metadata id="CorelCorpID_1Corel-Layer"/>
  <g id="_2546306682368">
   <g>
    <g>
     <path class="fil0 str0" d="M111.1071 11.7862c-2.1865,0 -3.9463,1.488 -3.9463,3.3213 0,1.8333 1.7602,3.3213 3.9463,3.3213 2.1783,0 3.9463,-1.488 3.9463,-3.3213 0,-1.8333 -1.768,-3.3213 -3.9463,-3.3213z"/>
    </g>
   </g>
   <g>
    <g>
     <path class="fil0" d="M26.2897 11.7862c-2.1864,0 -3.9462,1.488 -3.9462,3.3213 0,1.8333 1.7602,3.3213 3.9462,3.3213 2.1783,0 3.9464,-1.488 3.9464,-3.3213 0,-1.8333 -1.7677,-3.3213 -3.9464,-3.3213z"/>
    </g>
   </g>
   <g>
    <g>
     <path class="fil0" d="M117.1057 0.0184l-98.5589 0c-5.9062,0 -10.7105,4.042 -10.7105,9.0109l0 117.4452c0,4.9689 4.8049,9.0109 10.7107,9.0109l98.5591 0c5.9013,0 10.7028,-4.0421 10.7028,-9.0109l0 -117.4452c-0.0004,-4.9689 -4.8018,-9.0109 -10.7032,-9.0109zm2.8096 126.456c0.0003,1.3059 -1.26,2.3682 -2.8096,2.3682l-98.5589 0c-1.5537,0 -2.8177,-1.0623 -2.8177,-2.3682l0 -54.9494 14.4353 0c4.5195,5.6092 10.724,10.1055 17.9288,13.0302l-5.4943 5.897 -7.6352 -7.3978c-1.9842,-1.928 -5.1006,-2.5982 -7.9417,-1.7076 -2.8422,0.8921 -4.6789,3.1184 -4.6789,5.6719l0 29.9165c0,3.4047 3.2893,6.1746 7.3326,6.1746l38.3122 0c4.0432,0 7.3325,-2.7696 7.3325,-6.1746l0 -8.4695c0,-3.4028 -3.2893,-6.1712 -7.3325,-6.1712l-6.3969 0 4.4449 -13.9826c0.5961,0.0196 1.1917,0.0328 1.7863,0.0328 6.1281,0 12.0581,-1.0057 17.6459,-2.9892l34.4476 0 0 41.1189 -0.0004 0 0 0zm-49.8093 -61.2419c-1.6771,-0.7049 -3.7122,-0.3189 -4.869,0.922l-12.133 13.0225c-7.2085,-2.5849 -13.3363,-7.0341 -17.4381,-12.7232 -3.552,-4.926 -5.4298,-10.5929 -5.4298,-16.3886 0,-17.4446 16.8613,-31.6365 37.586,-31.6365 20.7293,0 37.5938,14.1919 37.5938,31.6365 0,12.3754 -8.6503,23.6837 -22.0376,28.8092 -4.8018,1.8394 -9.9273,2.7874 -15.2397,2.8236l4.0167 -12.6359c0.4848,-1.5239 -0.3722,-3.125 -2.0494,-3.8295l0.0001 -0.0001zm-28.4534 47.9478c1.8628,0.7839 3.8904,1.1782 5.9225,1.1782 1.7403,0 3.4836,-0.2892 5.1281,-0.8702 2.6326,-0.9303 4.8055,-2.5332 6.2422,-4.5506l8.4824 0 0 7.5294 -37.1918 0.0001 0 -27.8633 7.4061 7.1757 -0.4945 0.5324c-1.8517,1.9862 -2.8303,4.3629 -2.8303,6.8722 -0.0004,4.2617 2.8101,8.0921 7.3352,9.996l0.0001 0.0001zm11.1204 -8.8477l-0.0629 0.1799c-0.0113,0.0275 -0.0226,0.0551 -0.033,0.0828 -0.4781,1.2478 -1.5826,2.2567 -3.029,2.7673 -1.4621,0.5165 -3.0478,0.4723 -4.4656,-0.1241 -1.8335,-0.7715 -2.9725,-2.3248 -2.9725,-4.0542 0,-1.0083 0.3968,-1.9669 1.1516,-2.7771l16.1799 -17.3708 -6.7684 21.2962 -0.0001 0zm67.1426 -25.6199l-21.9384 0c9.5753,-7.1593 15.3321,-17.5467 15.3321,-28.6473 0,-21.1071 -20.4051,-38.2791 -45.4869,-38.2791 -25.077,0 -45.4791,17.1721 -45.4791,38.2791 0,5.1165 1.2166,10.1505 3.543,14.817l-10.1573 0 0 -55.8532c0,-1.306 1.264,-2.3683 2.8177,-2.3683l98.5589 0c1.5492,0 2.8099,1.0623 2.8099,2.3683l0 69.6834 0.0001 0.0001z"/>
    </g>
   </g>
   <g>
    <g>
     <path class="fil0" d="M67.8218 38.3573c-7.6688,0 -13.9073,5.2523 -13.9073,11.7081 0,6.4558 6.2391,11.708 13.9073,11.708 7.6729,0 13.9152,-5.2525 13.9152,-11.708 0.0002,-6.4558 -6.242,-11.7081 -13.9152,-11.7081zm0.0006 16.7734c-3.3164,0 -6.0143,-2.2723 -6.0143,-5.0652 0,-2.7928 2.6983,-5.0651 6.0143,-5.0651 3.3204,0 6.0222,2.2723 6.0222,5.0651 0,2.7929 -2.7017,5.0652 -6.0222,5.0652z"/>
    </g>
   </g>
   <g>
    <g>
     <path class="fil0" d="M105.6608 102.2948l-17.2934 0c-4.4346,0 -8.043,3.035 -8.043,6.7656l0 7.2805c0,3.7323 3.6084,6.7691 8.043,6.7691l17.2934 0.0001c4.4346,0 8.043,-3.0369 8.043,-6.7691l0 -7.2805c-0.0003,-3.7309 -3.6084,-6.7657 -8.043,-6.7657zm0.1497 14.0462c0,0.0672 -0.0702,0.1262 -0.15,0.1262l-17.2934 0c-0.0799,0 -0.15,-0.059 -0.15,-0.1262l0 -7.2805c0,-0.0664 0.0685,-0.1228 0.15,-0.1228l17.2934 0c0.0814,0 0.15,0.0564 0.15,0.1227l0 7.2806z"/>
    </g>
   </g>
   <g>
    <g>
     <path class="fil0 str0" d="M90.6407 91.4437l-6.3695 0c-2.1796,0 -3.9464,1.4872 -3.9464,3.3213 0,1.834 1.7669,3.3213 3.9464,3.3213l6.3695 0c2.1796,0 3.9463,-1.4872 3.9463,-3.3212 0,-1.8341 -1.7667,-3.3214 -3.9463,-3.3214z"/>
    </g>
   </g>
   <g>
    <g>
     <path class="fil0 str0" d="M109.7568 91.4437l-6.3696 0c-2.1795,0 -3.9462,1.4872 -3.9462,3.3213 0,1.834 1.7667,3.3213 3.9462,3.3213l6.3696 0c2.1796,0 3.9464,-1.4872 3.9464,-3.3212 0,-1.8341 -1.7665,-3.3214 -3.9464,-3.3214z"/>
    </g>
   </g>
  </g>
 </g>
</svg>
