<?xml version="1.0" encoding="UTF-8"?>
<!DOCTYPE svg PUBLIC "-//W3C//DTD SVG 1.1//EN" "http://www.w3.org/Graphics/SVG/1.1/DTD/svg11.dtd">
<!-- Creator: CorelDRAW 2021 (64-Bit) -->
<svg xmlns="http://www.w3.org/2000/svg" xml:space="preserve" width="135.467mm" height="135.467mm" version="1.1" style="shape-rendering:geometricPrecision; text-rendering:geometricPrecision; image-rendering:optimizeQuality; fill-rule:evenodd; clip-rule:evenodd"
viewBox="0 0 135.4666 135.4666"
 xmlns:xlink="http://www.w3.org/1999/xlink"
 xmlns:xodm="http://www.corel.com/coreldraw/odm/2003">
 <defs>
  <style type="text/css">
   <![CDATA[
    .str0 {stroke:#2F04D9;stroke-width:0.0762;stroke-miterlimit:22.9256}
    .fil0 {fill:#2F04D9;fill-rule:nonzero}
   ]]>
  </style>
 </defs>
 <g id="Capa_x0020_1">
  <metadata id="CorelCorpID_0Corel-Layer"/>
 </g>
 <g id="Capa_x0020_1_0">
  <metadata id="CorelCorpID_1Corel-Layer"/>
 </g>
 <g id="Capa_x0020_1_1">
  <metadata id="CorelCorpID_2Corel-Layer"/>
  <g id="_2546606107584">
   <g>
    <g>
     <g>
      <path class="fil0" d="M132.9834 108.7929l-2.4745 0 0 -90.9134c0,-6.3545 -4.1139,-11.5242 -9.1703,-11.5242l-107.1332 0c-5.0564,0 -9.1703,5.1698 -9.1703,11.5242l0 90.9134 -2.4745 0c-1.2058,0 -2.1834,1.2286 -2.1834,2.7439l0 5.8535c0,4.7407 3.069,8.5975 6.8413,8.5975l121.1071 0c3.7723,0 6.8413,-3.8568 6.8413,-8.5974l0 -5.8535c0,-1.5154 -0.9776,-2.744 -2.1834,-2.744l-0.0001 0zm-123.5816 -90.9133c0,-3.3285 2.155,-6.0365 4.8035,-6.0365l107.1332 0c2.6486,0 4.8035,2.708 4.8035,6.0365l0 90.9134 -116.7402 0 0 -90.9134zm121.3982 99.5109c0,1.7147 -1.1101,3.1097 -2.4745,3.1097l-121.1071 0c-1.3644,0 -2.4745,-1.395 -2.4745,-3.1097l0 -3.1097 49.207 0c-0.0032,0.0607 -0.0073,0.1211 -0.0073,0.1829 0,1.5154 0.9776,2.7439 2.1834,2.7439l23.2898 0c1.2058,0 2.1834,-1.2286 2.1834,-2.7439 0,-0.0618 -0.0041,-0.1222 -0.0073,-0.1829l49.207 0 0 3.1097 0.0001 0z"/>
      <path class="fil0 str0" d="M119.0096 18.0625l-102.4752 0c-1.2058,0 -2.1834,1.2286 -2.1834,2.7438l0 79.0234c0,1.5153 0.9776,2.7438 2.1834,2.7438l102.4752 0.0001c1.2058,0 2.1834,-1.2286 2.1834,-2.7439l0 -79.0233c0,-1.5153 -0.9776,-2.7439 -2.1834,-2.7439zm-2.1836 79.0233l-98.1082 0 0 -73.5355 98.1082 0 0 73.5355z"/>
     </g>
    </g>
   </g>
  </g>
 </g>
</svg>
