<?xml version="1.0" encoding="UTF-8"?>
<!DOCTYPE svg PUBLIC "-//W3C//DTD SVG 1.1//EN" "http://www.w3.org/Graphics/SVG/1.1/DTD/svg11.dtd">
<!-- Creator: CorelDRAW 2021 (64-Bit) -->
<svg xmlns="http://www.w3.org/2000/svg" xml:space="preserve" width="135.467mm" height="135.467mm" version="1.1" style="shape-rendering:geometricPrecision; text-rendering:geometricPrecision; image-rendering:optimizeQuality; fill-rule:evenodd; clip-rule:evenodd"
viewBox="0 0 135.4666 135.4666"
 xmlns:xlink="http://www.w3.org/1999/xlink"
 xmlns:xodm="http://www.corel.com/coreldraw/odm/2003">
 <defs>
  <style type="text/css">
   <![CDATA[
    .fil0 {fill:#2F04D9;fill-rule:nonzero}
   ]]>
  </style>
 </defs>
 <g id="Capa_x0020_1">
  <metadata id="CorelCorpID_0Corel-Layer"/>
 </g>
 <g id="Capa_x0020_1_0">
  <metadata id="CorelCorpID_1Corel-Layer"/>
 </g>
 <g id="Capa_x0020_1_1">
  <metadata id="CorelCorpID_2Corel-Layer"/>
  <g id="milestone_2.svg">
   <g>
    <g>
     <g>
      <path class="fil0" d="M13.6416 117.8504c0.3024,0 0.6072,-0.0609 0.9009,-0.1897 7.2022,-3.1361 19.3649,-4.7683 36.1627,-4.8543l1.6301 3.2647c0.5599,1.1155 1.9169,1.5714 3.03,1.0091 1.1152,-0.5577 1.5692,-1.9124 1.0091,-3.0276l-2.2556 -4.5156c-0.3839,-0.7654 -1.165,-1.2486 -2.0206,-1.2486 -18.3986,0 -31.2748,1.7113 -39.3599,5.2313 -1.1425,0.499 -1.664,1.8288 -1.1673,2.9734 0.3707,0.8493 1.1993,1.3573 2.0706,1.3573z"/>
      <path class="fil0" d="M131.1206 121.8353l-4.5157 0 0 -11.289c0,-0.5982 -0.2394,-1.174 -0.6615,-1.5962l-13.5647 -13.5625c0.4244,-0.8829 0.6797,-1.8603 0.6797,-2.9035 0,-3.7343 -3.039,-6.7733 -6.7733,-6.7733 -3.7343,0 -6.7733,3.039 -6.7733,6.7733 0,3.7343 3.039,6.7733 6.7733,6.7733 1.043,0 2.0185,-0.2551 2.9012,-0.6773l12.9032 12.9008 0.0001 10.3544 -117.4044 0c-2.4905,0 -4.5156,2.0251 -4.5156,4.5156l0 6.7733c0,1.2462 1.0115,2.2577 2.2577,2.2577 1.2462,0 2.2577,-1.0115 2.2577,-2.2577l0 -6.7733 126.4356 0 0 6.7733c0,1.2462 1.0091,2.2577 2.2577,2.2577 1.2486,0 2.2577,-1.0115 2.2577,-2.2577l0 -6.7733c0.0002,-2.4905 -2.0273,-4.5156 -4.5154,-4.5156zm-24.8354 -27.0934c-1.2462,0 -2.2577,-1.0136 -2.2577,-2.2577 0,-1.2441 1.0115,-2.2577 2.2577,-2.2577 1.2462,0 2.2577,1.0136 2.2577,2.2577 0,1.2441 -1.0115,2.2577 -2.2577,2.2577z"/>
      <path class="fil0" d="M32.4038 67.4499c1.646,4.2852 7.0916,18.1028 11.0429,24.0295l0.3567 0.5395c2.899,4.3958 7.7486,11.7539 24.0996,11.7539 16.3486,0 21.2005,-7.3581 24.0996,-11.7539l0.3567 -0.5395c3.951,-5.9267 9.3946,-19.7443 11.0429,-24.0295 2.9488,-0.7337 5.1409,-3.4025 5.1409,-6.5746l0 -9.031c0,-2.944 -1.8875,-5.4549 -4.5156,-6.3873l-0.0002 -11.6751c0,-8.9138 -4.694,-25.3796 -22.0562,-26.9692 -0.0339,-1.0657 -0.386,-1.9235 -0.7789,-2.558 -2.2194,-3.5875 -8.4509,-4.3394 -13.2893,-4.3394 -40.1749,0 -40.64,37.9984 -40.64,38.3823 0,1.2462 1.0091,2.2556 2.2532,2.2556l0.0045 0c1.2441,0 2.2532,-1.007 2.2577,-2.2532 0.0045,-1.3817 0.5125,-33.869 36.1244,-33.869 6.3849,0 8.9432,1.3817 9.4488,2.199 0.0701,0.1151 0.2619,0.4244 -0.1807,1.3073 -0.35,0.6998 -0.3117,1.5309 0.0992,2.1968 0.4133,0.6638 1.138,1.0702 1.9214,1.0702 20.0176,0 20.3176,21.6588 20.32,22.5777l0 13.5467c0,1.2462 1.0091,2.2577 2.2577,2.2577 1.2462,0 2.2577,1.0136 2.2577,2.2577l-0.0001 9.0312c0,1.2441 -1.0115,2.2577 -2.2577,2.2577 -0.9414,0 -1.7836,0.5847 -2.1156,1.4653 -0.0654,0.1783 -6.7326,17.8975 -11.0519,24.375l-0.3702 0.5599c-2.7048,4.1047 -6.4122,9.7242 -20.329,9.7242 -13.9192,0 -17.6242,-5.6195 -20.329,-9.7242l-0.3702 -0.5599c-4.3191,-6.4775 -10.9863,-24.1967 -11.054,-24.375 -0.3297,-0.8805 -1.1718,-1.4653 -2.1132,-1.4653 -1.2441,0 -2.2577,-1.0136 -2.2577,-2.2577l0 -9.031c0,-0.612 0.2439,-1.1673 0.6411,-1.5737 0.8197,1.8402 2.4926,3.4951 5.3036,3.7751l7.7261 5.7936c0.603,4.3978 4.3442,7.8093 8.9072,7.8093l4.5157 0c4.9805,0 9.031,-4.0505 9.031,-9.031 0,4.9805 4.0505,9.031 9.031,9.031l4.5157 0c4.5606,0 8.3063,-3.4115 8.9069,-7.8118l8.2521 -6.1862c0.998,-0.7474 1.2012,-2.163 0.4516,-3.161 -0.7474,-0.998 -2.163,-1.2033 -3.161,-0.4516l-5.755 4.3169c-0.8602,-2.7522 -3.4025,-4.7683 -6.437,-4.7683l-9.031 0c-3.7343,0 -6.7733,3.039 -6.7733,6.7733 0,-3.7343 -3.039,-6.7733 -6.7733,-6.7733l-9.0311 0c-3.0321,0 -5.5745,2.0161 -6.4368,4.7683l-4.3079 -3.2308c1.7769,-4.2942 3.3867,-10.6455 3.8428,-15.1045 7.1165,-0.1265 27.7053,-0.9956 36.8649,-6.7125 2.0772,8.0195 8.7445,14.7682 9.0808,15.1024 0.8827,0.8827 2.3098,0.8827 3.1925,0 0.8827,-0.8829 0.8827,-2.3098 0,-3.1925 -0.0836,-0.0836 -8.3696,-8.4622 -8.3696,-16.4661 0,-1.0136 -0.6773,-1.9055 -1.655,-2.1765 -0.9731,-0.2709 -2.0185,0.1445 -2.5376,1.0136 -3.2874,5.475 -24.6121,7.9362 -38.7051,7.9362 -1.2462,0 -2.2577,1.0115 -2.2577,2.2577 0,3.6645 -1.7317,10.9842 -3.574,15.4884 -0.7202,-0.4334 -0.9234,-1.2417 -0.9414,-1.9418 0,-1.2462 -1.0115,-2.2577 -2.2577,-2.2577 -3.7343,0 -6.7733,3.039 -6.7733,6.7733l0 9.0312c-0.0005,3.1721 2.1918,5.8409 5.1404,6.5746zm40.0147 -11.0903c0,-1.2441 1.0115,-2.2577 2.2577,-2.2577l9.0311 0c1.2462,0 2.2577,1.0136 2.2577,2.2577l0 2.2577c0,2.4903 -2.0251,4.5156 -4.5156,4.5156l-4.5157 0.0001c-2.4903,0 -4.5156,-2.0251 -4.5156,-4.5156l-0.0001 -2.2578 0.0005 0zm-22.5779 0c0,-1.2441 1.0136,-2.2577 2.2577,-2.2577l9.0313 0c1.2441,0 2.2577,1.0136 2.2577,2.2577l0 2.2577c0,2.4903 -2.0251,4.5156 -4.5156,4.5156l-4.5155 0.0001c-2.4903,0 -4.5156,-2.0251 -4.5156,-4.5156l0 -2.2578z"/>
      <path class="fil0" d="M79.1895 81.2021c0.0024,-1.2441 -1.0046,-2.2577 -2.2487,-2.2646 -0.0429,0 -4.0799,-0.0452 -8.0288,-2.0206 -0.6345,-0.3162 -1.384,-0.3162 -2.0185,0 -3.9489,1.9756 -7.988,2.0206 -8.0219,2.0206 -1.2462,0 -2.2577,1.0115 -2.2577,2.2577 0,1.2462 1.0115,2.2577 2.2577,2.2577 0.1918,0 4.4569,-0.0249 9.031,-2.0251 4.572,2.0003 8.8392,2.0251 9.031,2.0251 1.2444,0.0001 2.2514,-1.0069 2.2559,-2.2508z"/>
      <path class="fil0" d="M83.7006 108.3812c-0.8443,0.0045 -1.6187,0.4786 -2.005,1.2327l-2.2577 4.4207c-0.5667,1.1107 -0.1241,2.4723 0.9845,3.039 0.3273,0.167 0.6797,0.2461 1.025,0.2461 0.8218,0 1.6142,-0.4493 2.014,-1.2306l1.628 -3.1925c12.341,0.0339 22.2798,0.9573 29.5632,2.7456 1.2147,0.3003 2.4339,-0.4424 2.7297,-1.6526 0.2979,-1.2123 -0.4403,-2.4339 -1.6526,-2.7318 -7.907,-1.9442 -18.6314,-2.9557 -32.0291,-2.8766z"/>
      <path class="fil0" d="M65.6452 110.5463l0 4.5156c0,1.2462 1.0115,2.2577 2.2577,2.2577 1.2462,0 2.2577,-1.0115 2.2577,-2.2577l0 -4.5156c0,-1.2462 -1.0115,-2.2577 -2.2577,-2.2577 -1.2462,0 -2.2577,1.0115 -2.2577,2.2577z"/>
      <path class="fil0" d="M65.6452 85.7109c-1.2462,0 -2.2577,1.0115 -2.2577,2.2577 0,1.2462 1.0115,2.2577 2.2577,2.2577l4.5157 0c1.2486,0 2.2577,-1.0115 2.2577,-2.2577 0,-1.2462 -1.0091,-2.2577 -2.2577,-2.2577l-4.5157 0z"/>
     </g>
    </g>
   </g>
   <g>
   </g>
   <g>
   </g>
   <g>
   </g>
   <g>
   </g>
   <g>
   </g>
   <g>
   </g>
   <g>
   </g>
   <g>
   </g>
   <g>
   </g>
   <g>
   </g>
   <g>
   </g>
   <g>
   </g>
   <g>
   </g>
   <g>
   </g>
   <g>
   </g>
  </g>
 </g>
</svg>
