<?xml version="1.0" encoding="UTF-8"?>
<!DOCTYPE svg PUBLIC "-//W3C//DTD SVG 1.1//EN" "http://www.w3.org/Graphics/SVG/1.1/DTD/svg11.dtd">
<!-- Creator: CorelDRAW 2021 (64-Bit) -->
<svg xmlns="http://www.w3.org/2000/svg" xml:space="preserve" width="131.233mm" height="131.233mm" version="1.1" style="shape-rendering:geometricPrecision; text-rendering:geometricPrecision; image-rendering:optimizeQuality; fill-rule:evenodd; clip-rule:evenodd"
viewBox="0 0 131.2332 131.2332"
 xmlns:xlink="http://www.w3.org/1999/xlink"
 xmlns:xodm="http://www.corel.com/coreldraw/odm/2003">
 <defs>
  <style type="text/css">
   <![CDATA[
    .str0 {stroke:blue;stroke-width:0.0762;stroke-miterlimit:22.9256}
    .fil0 {fill:blue}
   ]]>
  </style>
 </defs>
 <g id="Capa_x0020_1">
  <metadata id="CorelCorpID_0Corel-Layer"/>
  <path class="fil0" d="M16.3488 85.2819c0.0317,-0.022 0.0832,-0.0839 0.1034,-0.052l21.5623 -0.1078c3.2976,0.0008 64.1201,-0.1452 65.1687,0.0445 0.1658,2.5632 0.0757,30.02 -0.0966,30.307 0.3142,2.2463 -1.6842,4.663 -2.6707,5.4837 -1.9162,1.5939 -3.273,1.9269 -6.3473,1.9255l-65.8927 0.0026c-2.6163,0.0003 -5.144,0.2992 -7.3458,-0.8004 -1.7477,-0.8731 -3.1908,-2.2814 -3.9781,-4.3173 -0.936,-2.4204 -0.52,-12.6543 -0.518,-15.9781 0.0029,-5.402 -0.1861,-11.1515 0.0148,-16.5077zm31.3726 -13.4295l35.2424 0.0016c8.4146,0.1787 17.0368,-0.0165 25.4741,-0.0288 2.2406,-0.0032 3.7577,-0.1228 5.1257,1.2751 2.9268,2.9902 1.2603,7.0495 -1.9143,7.9679 -1.2109,0.3502 -4.8506,0.1787 -6.3185,0.1773l-89.4529 0.0069c-2.6198,0.0032 -7.1227,0.3847 -9.0032,-0.6137 -3.9708,-2.1088 -2.8922,-8.7415 2.3991,-8.8272 12.545,-0.2035 25.7473,0.2969 38.4476,0.0409zm34.3838 -6.2272l15.2512 -0.0626 0.0042 2.3504 -15.2362 0.0402 -0.0192 -2.328zm-10.0095 -4.873c-0.004,-4.7093 -0.1483,-12.8125 0.0182,-17.3984 11.0913,-0.1517 23.9096,-0.0197 35.2256,-0.0153 0.2001,1.6415 0.0689,15.6407 0.0677,18.3377 -7.7382,0.1271 -16.4587,-0.016 -24.3424,-0.0197l-10.9684 -0.0096 -0.0007 -0.8947zm-37.3168 -6.9499c2.4511,0.0912 4.7767,-0.5709 6.261,-1.8088 1.5875,-1.3238 2.2165,-2.3714 3.119,-4.9041 2.8044,-0.1568 6.0208,-0.0082 8.8725,-0.0125 3.1294,-0.0047 4.8351,0.9328 5.8444,3.1747 0.8528,1.8929 0.3326,14.5143 0.4268,17.7115l-7.1057 -0.001 -0.0257 -9.7281c-0.1444,-0.8116 -0.9368,-1.5093 -1.858,-1.5256 -3.4296,-0.0594 -1.3445,6.4376 -2.0082,11.2304l-25.235 0.0259 -0.052 -9.8007c-0.4734,-0.9705 -1.1908,-1.787 -2.5385,-1.3541 -1.2539,0.4029 -1.2884,1.5131 -1.284,2.9069 0.0075,2.3622 0.2096,5.9908 -0.0291,8.2055l-7.0179 0.0395c-0.1515,-0.7892 -0.0585,-7.5218 -0.0593,-8.8924 -0.0029,-4.3851 -0.8807,-9.251 2.45,-11.1835 1.2222,-0.7085 2.0214,-0.8148 3.6686,-0.813 2.9425,0.0034 6.0834,-0.1044 9.0004,0.0158 0.5786,1.4369 0.6865,2.2195 1.7632,3.5502 1.5923,1.9676 3.3918,2.6801 5.8075,3.1634zm-3.8523 -10.7677c1.1308,0.0882 1.9549,0.6956 4.7577,0.7041 1.9552,0.0061 3.0952,-0.365 4.8503,-0.7347 0.0405,1.9215 0.0658,3.605 -0.9308,4.9672 -2.0102,2.7487 -5.9867,2.5245 -7.7759,-0.0627 -0.9045,-1.3086 -0.9105,-3.0616 -0.9013,-4.8739zm-6.664 -21.1679c3.41,-0.6677 5.4484,-1.2517 9.0276,-0.7855 0.9069,5.0408 10.4698,2.7074 13.8292,2.1016 0.0393,7.371 0.1572,11.7819 -6.1226,15.31 -5.2421,2.9456 -12.03,0.8171 -14.9606,-3.9549 -2.3877,-3.8878 -1.7291,-7.8018 -1.7736,-12.6712zm0.3338 -4.1066c1.2252,-4.9224 5.7337,-9.2729 11.9995,-8.7636 5.4174,0.441 10.0029,4.8165 10.4366,10.1671 -1.8991,0.611 -8.125,1.756 -9.9452,0.9869 -0.2958,-0.2392 -0.2567,-1.4588 -1.8378,-2.3302 -3.3471,-1.8445 -9.0952,-0.0481 -10.6531,-0.0602zm103.5593 15.5224c-0.2841,3.1572 -0.9636,5.0126 -1.9931,7.6612 -0.6752,-0.2089 -1.7959,-0.9907 -2.4886,-1.3803 -2.3162,-1.3024 -4.2631,1.8081 -2.0101,3.3017 0.7791,0.5168 1.5941,0.9054 2.4418,1.4466 -0.31,1.1338 -4.1566,4.9737 -5.6341,5.6198 -0.1464,-0.4805 -1.0437,-1.9875 -1.3767,-2.4976 -0.5166,-0.7905 -1.5832,-1.3869 -2.7274,-0.6892 -2.2456,1.3695 0.4287,3.9454 0.7864,5.1758 -1.3024,0.5113 -2.4495,1.0417 -3.8961,1.3476 0.0321,-3.4122 0.0003,-6.8372 0.0014,-10.2511 0.0006,-1.6793 0.0832,-3.2239 -1.5333,-3.5086 -1.7375,-0.3064 -24.6232,0.3162 -25.2143,-0.1259 -0.7355,-0.8715 -1.3712,-4.6135 -1.4724,-6.0841 2.0445,0.0653 4.8548,0.4374 4.8492,-1.9321 -0.0055,-2.3846 -2.8316,-1.9601 -4.858,-1.9239 0.1649,-1.9411 1.1384,-6.4886 2.1059,-7.6346 1.2914,0.5705 3.8742,2.9832 5.1408,0.7211 0.702,-1.2542 -0.0593,-2.2553 -0.8298,-2.7264 -0.7536,-0.4611 -1.6375,-0.9851 -2.3737,-1.3444 0.5207,-1.2769 4.3371,-5.0879 5.6155,-5.6166 0.2011,0.551 1.0238,1.873 1.3911,2.4591 1.4056,2.2416 4.6084,0.4389 3.3041,-2.0084 -0.3892,-0.7298 -1.0507,-1.6446 -1.3514,-2.3797 1.0901,-0.9098 5.7884,-2.0319 7.6173,-2.0889 0.0053,2.0126 -0.4545,4.833 1.94,4.8327 2.3939,-0.0002 1.9233,-2.8406 1.9233,-4.842 1.9126,0.0932 6.4244,1.1577 7.6402,2.0982 -0.292,0.7989 -1.0493,1.7379 -1.4348,2.5624 -1.0891,2.3272 1.9982,3.9845 3.3783,1.8246 0.381,-0.596 1.1764,-1.8906 1.3946,-2.4517 1.0095,0.4122 2.8713,2.3416 3.8175,3.2218 0.264,0.2451 1.6186,1.9388 1.7724,2.3509 -1.226,0.9154 -4.4953,1.8744 -3.1186,4.179 1.2549,2.1006 3.7091,-0.1793 5.0807,-0.7833 1.006,1.2465 1.9389,5.6624 2.1094,7.6419 -1.9906,-0.0227 -4.8438,-0.4905 -4.8528,1.9082 -0.0086,2.3805 2.8495,1.9654 4.8553,1.9162zm-45.2332 -15.7675c-0.3764,1.0169 -1.4763,2.6936 -2.1878,4.6553 -1.3635,3.7572 -1.9043,7.6167 -1.5329,11.6513 0.2381,2.5849 1.0362,4.9862 1.0898,5.6437 -2.1512,0.0269 -8.8979,-0.1162 -10.3081,0.0145 -1.7881,0.1657 -1.7958,1.6562 -1.7955,3.4078 0.0005,1.7379 -0.0368,3.5103 0.0042,5.2431 0.0652,4.5789 -0.0031,9.2027 -0.002,13.7868 0.0007,2.9766 0.1189,3.6434 3.2239,3.6369 1.8907,-0.0043 5.0736,-0.1887 6.813,0.0337l-0.0014 2.3454 -14.9392 0.0244c-0.1451,-0.9788 -0.0478,-9.1143 -0.0495,-10.8301 -0.0015,-1.7527 0.0728,-3.6779 -0.0219,-5.4092 -0.1004,-1.8328 -0.6492,-2.8121 -1.2773,-4.1916 -0.7683,-0.8787 -1.3587,-1.9172 -2.6488,-2.7424 -3.2054,-2.0508 -5.5767,-1.5764 -9.3645,-1.5768 -1.8428,-0.0003 -3.7823,-0.0563 -5.6136,0.018l0.0158 -2.1508c1.1154,-0.8998 0.9337,-0.5801 2.1471,-1.7669 0.5624,-0.5498 1.2729,-1.3917 1.766,-2.1158 1.0067,-1.4783 1.9578,-3.3513 2.4018,-5.4997 0.605,-2.9259 0.5362,-12.0027 -0.1005,-14.9386 -1.0917,-5.1642 -5.4005,-9.4438 -10.1632,-10.9179 -4.3891,-1.359 -8.8878,-0.8382 -12.7294,1.5716 -1.081,0.6783 -2.2386,1.5648 -2.95,2.3564 -4.6199,5.1397 -4.2919,8.536 -4.2875,16.812 0.0022,3.5352 0.226,6.0917 1.7075,8.9074 0.5654,1.0748 1.4969,2.4872 2.1676,3.1393 0.4806,0.4671 0.8292,0.8149 1.2974,1.2911 1.5455,1.5719 1.4302,0.0755 1.4337,3.2806 -7.2361,0.1332 -13.6065,-1.5906 -17.3917,4.3137 -1.7256,2.6921 -1.3544,6.0018 -1.3533,9.4901 0.0011,3.6738 0.0107,7.35 -0.0026,11.0237 -7.6908,0.735 -10.8178,11.0419 -3.648,15.7659 2.8549,1.8812 4.5541,0.9778 7.8394,1.3541 0.108,4.0309 -0.3094,29.2587 0.2257,32.0205 0.5043,3.2985 2.4874,5.533 4.1673,6.9545 2.142,1.8123 4.8302,2.7322 8.4151,2.6349 10.2336,-0.17 20.6181,0.0005 30.8691,0.0003 10.2699,-0.0006 20.5403,-0.0019 30.8103,-0.0019 4.3926,0 10.4796,0.5981 13.9551,-1.4295 7.1813,-4.1887 6.1574,-10.1235 6.1552,-16.929 -0.0011,-2.5892 0.0015,-5.1783 0.0022,-7.7673 0.0017,-5.0509 -0.1882,-10.4721 0.0146,-15.4762 3.5113,-0.418 4.5792,0.5559 7.7648,-1.2937 6.7791,-3.9366 4.7346,-14.8995 -3.4141,-15.8282l-10.1696 -0.0685 -0.0248 -2.3687c1.7489,-0.2403 7.9451,0.2534 8.9549,-0.2434 1.371,-0.6749 1.0599,-2.2232 1.058,-3.5578l0.1705 -4.5732 0.6416 -0.1014c1.203,-0.5795 3.9705,-0.8598 7.6047,-3.2611 1.1457,-0.757 2.2535,-1.4742 3.1498,-2.2898 1.8224,-1.6591 1.2175,-1.116 2.769,-2.7967 3.9927,-4.3256 5.6453,-9.1885 6.4121,-14.9456l0.1673 -0.6686c-0.3293,-1.3085 0.566,-5.2815 -1.7952,-11.2831 -1.406,-3.5734 -4.1052,-7.7028 -6.6199,-9.8229 -0.6,-0.5053 -1.0533,-0.9816 -1.7316,-1.503 -4.0529,-3.1151 -8.3494,-4.9538 -13.7697,-5.5678 -6.3156,-0.3959 -10.736,0.6377 -15.5815,3.241 -1.8091,0.972 -2.7302,1.7831 -4.1896,2.9254 -0.9411,0.7372 -2.8155,2.7031 -3.5811,3.6673 -0.2405,0.3031 -1.8686,2.645 -1.9687,2.7065z"/>
  <path class="fil0 str0" d="M47.0801 112.5045c0.4624,0.9209 1.2662,1.8006 2.6626,1.2371 1.2798,-0.5162 1.1694,-1.7482 1.1703,-3.3078 0.0015,-2.9903 0.0015,-5.9808 0.0061,-8.9714l8.5014 11.2653c1.3562,1.8046 3.0297,1.4509 3.7456,-0.3527 0.0387,-2.1071 0.1966,-16.8023 -0.1058,-17.6585 -0.3404,-0.964 -1.6725,-1.625 -2.8446,-0.9325 -1.1535,0.6811 -0.8925,1.9704 -0.8903,3.5749 0.0038,2.8782 -0.0223,5.7654 0.0078,8.6419 -0.3269,-0.2121 -6.0042,-7.9269 -7.0331,-9.3235 -1.0261,-1.3934 -2.6988,-4.4063 -4.6007,-2.7189 -0.5671,0.5032 -0.674,1.1176 -0.6708,2.105 0.0144,4.4494 -0.2216,12.9029 0.0515,16.4411z"/>
  <path class="fil0" d="M21.9189 96.9619c1.4937,0.0384 5.0913,-0.5452 4.9968,2.6036 -0.089,2.9545 -3.5087,2.4149 -5.0174,2.4508l0.0206 -5.0544zm0.0199 8.9139l1.283 -0.028c0.2353,0.0936 3.1722,5.3728 3.7434,6.3344 1.4151,2.3837 3.5135,1.1788 3.7745,-0.2276 0.1902,-1.0239 -0.4206,-1.7004 -0.8438,-2.4454 -0.4135,-0.7271 -0.7969,-1.3957 -1.2382,-2.1267 -0.3632,-0.6017 -1.0339,-1.6695 -1.2646,-2.2999 3.7503,-1.2945 5.3517,-8.8966 -0.5164,-11.4576 -1.118,-0.4877 -1.9258,-0.49 -3.2196,-0.4871 -2.4175,0.0058 -5.4658,-0.6966 -5.6319,1.8895 -0.1789,2.7908 0.015,11.5368 0.0136,15.0241 -0.0004,1.4027 -0.1478,2.3187 0.7491,3.0575 0.8411,0.6924 2.0254,0.4185 2.6259,-0.2507 1.0149,-1.1303 0.2623,-5.2153 0.525,-6.9825z"/>
  <path class="fil0 str0" d="M33.4563 93.9809c-0.2004,0.8914 -0.4,0.6775 -0.3939,2.1037l0.0103 12.9474c0.0084,5.1354 -0.2025,4.7495 5.6417,4.7506 1.6228,0.0003 3.6937,0.326 4.6067,-0.6625 1.0613,-1.1491 0.2974,-2.9533 -1.1229,-3.1793 -1.4726,-0.2341 -3.6517,0.0941 -5.2327,-0.0654l-0.0131 -4.2803c3.4546,-0.4227 5.7959,0.8878 6.7763,-1.4288 0.4849,-3.7863 -4.2735,-2.0548 -6.7835,-2.538l0.0059 -4.3318c1.5174,-0.2188 3.9809,0.1954 5.3425,-0.0979 1.4969,-0.3226 1.9441,-2.2896 0.8422,-3.3329 -0.8673,-0.8207 -3.5858,-0.482 -4.939,-0.4816 -2.5577,0.0006 -2.9234,-0.2663 -4.7405,0.5968z"/>
  <path class="fil0" d="M71.3428 97.6068l0.0094 13.596c-0.0042,1.5216 0.3557,2.6592 1.9182,2.6736 1.4866,0.0139 1.9728,-1.1186 1.9702,-2.5455 -0.0029,-1.5538 -0.0018,-3.1077 -0.001,-4.6616 0.001,-3.0132 -0.1216,-6.2883 0.0151,-9.2686 2.0123,-0.1428 6.5938,0.9214 6.1883,-2.2473 -0.1124,-0.8795 -0.641,-1.133 -1.1886,-1.5608 -1.9279,-0.2127 -4.3222,-0.0246 -6.3426,-0.0774 -2.0798,-0.0546 -4.2508,0.0093 -6.3479,0.002 -3.0247,-0.011 -2.7082,2.4803 -1.913,3.2902 0.7601,0.7742 2.7996,0.5765 4.2485,0.5604 1.3314,-0.0145 1.2406,-0.1462 1.4434,0.239z"/>
  <path class="fil0" d="M103.6465 29.4296c-2.3999,0.086 -4.9637,0.0207 -7.3783,0.0088 -1.2819,-0.0064 -2.1773,0.1749 -2.582,1.1599 -0.4412,1.0738 0.1559,2.1201 0.8629,2.4921 0.8258,0.4344 5.8549,0.2139 7.1573,0.213 2.0037,-0.0011 5.4453,0.6501 5.7866,-1.5823 0.1923,-1.2583 0.017,-8.7447 0.0269,-11.1001 0.0053,-1.3291 -0.0735,-2.1608 -1.0137,-2.5987 -0.9849,-0.459 -2.0946,-0.1319 -2.5758,0.6792 -0.4571,0.7711 -0.2845,2.3651 -0.285,3.3439 -0.0017,2.4574 -0.0269,4.9283 0.0011,7.3842z"/>
 </g>
 <g id="Capa_x0020_1_0">
  <metadata id="CorelCorpID_1Corel-Layer"/>
  <path class="fil0" d="M85.5876 96.9427l-3.9705 13.3937c-0.4763,1.4452 -0.4872,2.6383 0.9937,3.1369 1.4089,0.4745 2.2226,-0.4512 2.6629,-1.8084 0.4794,-1.478 0.9627,-2.9548 1.4456,-4.4318 0.9361,-2.8641 1.7933,-6.9473 2.8939,-8.8946 1.4393,1.9474 4.4196,14.715 6.2825,15.1383 0.6772,0.2541 1.6761,0.4404 2.5068,-0.3058 0.7987,-0.7175 0.9505,-1.9664 0.1526,-3.6504 -1.2182,-1.6975 -4.1664,-11.0599 -5.703,-13.5875 -1.9347,-2.8066 -4.8412,-3.6134 -7.2645,1.0096z"/>
 </g>
</svg>
