<?xml version="1.0" encoding="UTF-8"?>
<!DOCTYPE svg PUBLIC "-//W3C//DTD SVG 1.1//EN" "http://www.w3.org/Graphics/SVG/1.1/DTD/svg11.dtd">
<!-- Creator: CorelDRAW 2021 (64-Bit) -->
<svg xmlns="http://www.w3.org/2000/svg" xml:space="preserve" width="131.233mm" height="131.233mm" version="1.1" style="shape-rendering:geometricPrecision; text-rendering:geometricPrecision; image-rendering:optimizeQuality; fill-rule:evenodd; clip-rule:evenodd"
viewBox="0 0 131.2332 131.2332"
 xmlns:xlink="http://www.w3.org/1999/xlink"
 xmlns:xodm="http://www.corel.com/coreldraw/odm/2003">
 <defs>
  <style type="text/css">
   <![CDATA[
    .fil0 {fill:blue;fill-rule:nonzero}
   ]]>
  </style>
 </defs>
 <g id="Capa_x0020_1">
  <metadata id="CorelCorpID_0Corel-Layer"/>
  <g id="Trellix-01.svg">
   <g>
    <polygon class="fil0" points="129.1166,34.89 94.3505,30.4575 88.8116,35.9423 106.1864,38.1564 108.2402,55.5625 113.779,50.0778 112.466,38.9588 123.5777,40.3748 "/>
    <rect class="fil0" transform="matrix(0.808742 -0.80084 0.80084 0.808742 81.5938 43.0897)" width="5.9055" height="24.2653"/>
    <rect class="fil0" transform="matrix(0.808742 -0.80084 0.80084 0.808742 66.8747 44.4614)" width="5.9055" height="32.5084"/>
    <rect class="fil0" transform="matrix(0.808742 -0.80084 0.80084 0.808742 58.5581 52.6967)" width="5.9055" height="32.5084"/>
    <path class="fil0" d="M72.5643 91.4852c-1.8511,1.833 -4.0067,3.0643 -6.4666,3.6897 -4.9013,1.2569 -10.0988,-0.1858 -13.6519,-3.7904 -1.833,-1.8512 -3.0643,-4.0067 -3.6897,-6.4666 -0.6276,-2.4125 -0.609,-4.9477 0.0547,-7.3497 0.643,-2.4062 1.9204,-4.5948 3.6968,-6.3375 1.5548,-1.5601 3.4624,-2.7184 5.5615,-3.3805 2.0825,-0.6623 4.2907,-0.8412 6.451,-0.5212 2.1562,0.3035 4.2152,1.1015 6.0121,2.3316 1.5667,1.039 2.8026,2.2622 3.7033,3.6653l-15.2545 15.1055c1.0279,0.6941 2.1008,1.0975 3.2182,1.2144 1.1114,0.1189 2.2343,-0.0489 3.2637,-0.4811 1.0811,-0.4507 2.0581,-1.1101 2.8831,-1.9394 0.9432,-0.9381 1.6995,-2.0483 2.2274,-3.2691 0.5319,-1.1793 0.8022,-2.4611 0.7941,-3.7546l5.3577 -3.0309c0.7497,2.3369 0.7127,4.845 -0.1112,7.5165 -0.8238,2.6757 -2.1758,4.9423 -4.0497,6.798zm-6.6613 -17.1667c-0.9028,-0.5511 -1.9119,-0.9026 -2.9613,-1.0294 -1.0988,-0.1395 -2.2133,-0.0253 -3.263,0.3326 -1.0807,0.3639 -2.0802,0.9964 -2.9943,1.9016 -0.9141,0.9052 -1.5627,1.9005 -1.9496,2.994 -0.3806,1.0461 -0.5119,2.1697 -0.3833,3.278 0.1165,1.0506 0.4561,2.0651 1.0003,2.9713l10.5512 -10.4481z"/>
    <path class="fil0" d="M29.6856 94.4906l4.8134 -4.7663 2.8963 2.9249c-0.4825,-1.7228 -0.3955,-3.4841 0.2652,-5.2879 0.6607,-1.8038 2.0262,-3.4598 4.0964,-4.9719l5.0968 5.147c-1.6253,0.78 -2.8765,1.859 -3.7558,3.243 -0.8794,1.384 -1.2476,2.8489 -1.1088,4.3988 0.141,1.5479 0.8211,2.9394 2.0424,4.1728l9.9001 9.9978 -4.8134 4.7662 -19.4326 -19.6244z"/>
    <polygon class="fil0" points="14.8572,105.1384 6.7105,113.2054 2.1269,108.5766 23.0842,87.8241 27.6678,92.4529 19.8177,100.2263 41.2681,121.8884 36.3076,126.8004 "/>
    <polygon class="fil0" points="110.9471,26.4669 105.4062,31.9537 102.7011,8.9851 108.24,3.5003 "/>
   </g>
  </g>
 </g>
</svg>
